<svg xmlns="http://www.w3.org/2000/svg" version="1.1" xmlns:xlink="http://www.w3.org/1999/xlink" xmlns:svgjs="http://svgjs.dev/svgjs" viewBox="0 0 800 800"><defs><linearGradient x1="50%" y1="0%" x2="50%" y2="100%" id="nnneon-grad"><stop stop-color="hsl(335, 77%, 60%)" stop-opacity="1" offset="0%"></stop><stop stop-color="hsl(212, 72%, 59%)" stop-opacity="1" offset="100%"></stop></linearGradient><filter id="nnneon-filter" x="-100%" y="-100%" width="400%" height="400%" filterUnits="objectBoundingBox" primitiveUnits="userSpaceOnUse" color-interpolation-filters="sRGB">
	<feGaussianBlur stdDeviation="34 33" x="0%" y="0%" width="100%" height="100%" in="SourceGraphic" edgeMode="none" result="blur"></feGaussianBlur></filter><filter id="nnneon-filter2" x="-100%" y="-100%" width="400%" height="400%" filterUnits="objectBoundingBox" primitiveUnits="userSpaceOnUse" color-interpolation-filters="sRGB">
	<feGaussianBlur stdDeviation="10 17" x="0%" y="0%" width="100%" height="100%" in="SourceGraphic" edgeMode="none" result="blur"></feGaussianBlur></filter></defs><g stroke-width="8.5" stroke="url(#nnneon-grad)" fill="none" transform="rotate(46, 400, 400)"><path d="M386.5285125028954 205.7047969156106C394.86466896610375 200.89278158164484 405.13533103389625 200.89278158164484 413.4714874971046 205.70614406436033L561.5285236852825 291.1867736797378C569.8646801484908 295.9987890137036 575.0000111823871 304.8940122080418 575.0000111823871 314.519390024723V485.48064925547806C575.0000111823871 495.10602707215935 569.8646801484908 504.00125026649744 561.5285236852825 508.814612749213L413.4714874971046 594.2952423645904C405.13533103389625 599.1072576985562 394.86466896610375 599.1072576985562 386.5285125028954 594.2938952158407L238.4714763147175 508.8132656004632C230.13531985150922 504.00125026649744 224.99998881761292 495.10602707215935 224.99998881761292 485.48064925547806V314.519390024723C224.99998881761292 304.8940122080418 230.13531985150922 295.9987890137036 238.4714763147175 291.18542653098814L386.5285125028954 205.7047969156106Z " filter="url(#nnneon-filter)"></path><path d="M406.5285125028954 205.7047969156106C414.86466896610375 200.89278158164484 425.13533103389625 200.89278158164484 433.4714874971046 205.70614406436033L581.5285236852825 291.1867736797378C589.8646801484908 295.9987890137036 595.0000111823871 304.8940122080418 595.0000111823871 314.519390024723V485.48064925547806C595.0000111823871 495.10602707215935 589.8646801484908 504.00125026649744 581.5285236852825 508.814612749213L433.4714874971046 594.2952423645904C425.13533103389625 599.1072576985562 414.86466896610375 599.1072576985562 406.5285125028954 594.2938952158407L258.4714763147175 508.8132656004632C250.13531985150922 504.00125026649744 244.99998881761292 495.10602707215935 244.99998881761292 485.48064925547806V314.519390024723C244.99998881761292 304.8940122080418 250.13531985150922 295.9987890137036 258.4714763147175 291.18542653098814L406.5285125028954 205.7047969156106Z " filter="url(#nnneon-filter2)" opacity="0.25"></path><path d="M366.5285125028954 205.7047969156106C374.86466896610375 200.89278158164484 385.13533103389625 200.89278158164484 393.4714874971046 205.70614406436033L541.5285236852825 291.1867736797378C549.8646801484908 295.9987890137036 555.0000111823871 304.8940122080418 555.0000111823871 314.519390024723V485.48064925547806C555.0000111823871 495.10602707215935 549.8646801484908 504.00125026649744 541.5285236852825 508.814612749213L393.4714874971046 594.2952423645904C385.13533103389625 599.1072576985562 374.86466896610375 599.1072576985562 366.5285125028954 594.2938952158407L218.4714763147175 508.8132656004632C210.13531985150922 504.00125026649744 204.99998881761292 495.10602707215935 204.99998881761292 485.48064925547806V314.519390024723C204.99998881761292 304.8940122080418 210.13531985150922 295.9987890137036 218.4714763147175 291.18542653098814L366.5285125028954 205.7047969156106Z " filter="url(#nnneon-filter2)" opacity="0.25"></path><path d="M386.5285125028954 205.7047969156106C394.86466896610375 200.89278158164484 405.13533103389625 200.89278158164484 413.4714874971046 205.70614406436033L561.5285236852825 291.1867736797378C569.8646801484908 295.9987890137036 575.0000111823871 304.8940122080418 575.0000111823871 314.519390024723V485.48064925547806C575.0000111823871 495.10602707215935 569.8646801484908 504.00125026649744 561.5285236852825 508.814612749213L413.4714874971046 594.2952423645904C405.13533103389625 599.1072576985562 394.86466896610375 599.1072576985562 386.5285125028954 594.2938952158407L238.4714763147175 508.8132656004632C230.13531985150922 504.00125026649744 224.99998881761292 495.10602707215935 224.99998881761292 485.48064925547806V314.519390024723C224.99998881761292 304.8940122080418 230.13531985150922 295.9987890137036 238.4714763147175 291.18542653098814L386.5285125028954 205.7047969156106Z "></path></g></svg>